<svg width="1920" height="350" viewBox="0 0 1920 350" fill="none" xmlns="http://www.w3.org/2000/svg">
<path d="M0 87.4483L64 90.5799C128 93.9479 256 99.8565 384 103.224C512 106.356 640 106.356 768 96.9022C896 87.4483 1024 68.5406 1152 71.6722C1280 75.0401 1408 99.8565 1536 118.942C1664 137.672 1792 150.671 1856 156.757L1920 163.079H1856C1792 163.079 1664 163.079 1536 163.079C1408 163.079 1280 163.079 1152 163.079C1024 163.079 896 163.079 768 163.079C640 163.079 512 163.079 384 163.079C256 163.079 128 163.079 64 163.079H0V87.4483Z" fill="white"/>
<path d="M0 274.162L64 277.294C128 280.662 256 286.571 384 289.939C512 293.07 640 293.07 768 283.616C896 274.162 1024 255.255 1152 258.386C1280 261.754 1408 286.571 1536 305.656C1664 324.386 1792 337.385 1856 343.471L1920 349.793V160.716H1856C1792 160.716 1664 160.716 1536 160.716C1408 160.716 1280 160.716 1152 160.716C1024 160.716 896 160.716 768 160.716C640 160.716 512 160.716 384 160.716C256 160.716 128 160.716 64 160.716H0V274.162Z" fill="white"/>
</svg>
